<svg width="30" height="30" viewBox="0 0 30 30" fill="none" xmlns="http://www.w3.org/2000/svg">
<circle cx="15" cy="15" r="15" fill="white"/>
<path d="M20.657 7.5C21.5358 7.5 22.2445 8.21062 22.2864 9.04688V22.5L20.6133 21.0794L19.6945 20.2431L18.692 19.3694L19.1108 20.7475H10.337C9.46076 20.7475 8.74951 20.0819 8.74951 19.2V9.05C8.74951 8.21375 9.46201 7.50188 10.3401 7.50188H20.6526L20.657 7.5ZM16.8333 11.0519H16.8145L16.6883 11.1769C17.9839 11.5519 18.6108 12.1375 18.6108 12.1375C17.7758 11.72 17.0233 11.5113 16.2708 11.4269C15.727 11.3425 15.1833 11.3869 14.7239 11.4269H14.5989C14.3051 11.4269 13.6801 11.5519 12.8426 11.8863C12.5508 12.0131 12.3833 12.0963 12.3833 12.0963C12.3833 12.0963 13.0095 11.47 14.3895 11.1356L14.3051 11.0512C14.3051 11.0512 13.2601 11.0112 12.132 11.845C12.132 11.845 11.0039 13.81 11.0039 16.2325C11.0039 16.2325 11.6289 17.32 13.3433 17.3612C13.3433 17.3612 13.5933 17.0281 13.8464 16.735C12.8839 16.4425 12.5089 15.8575 12.5089 15.8575C12.5089 15.8575 12.5926 15.8988 12.7183 15.9825H12.7558C12.7745 15.9825 12.7833 15.9919 12.7933 16.0013V16.005C12.8033 16.015 12.812 16.0238 12.8308 16.0238C13.037 16.1088 13.2433 16.1925 13.412 16.2737C13.7729 16.4282 14.1504 16.5406 14.537 16.6087C15.1183 16.6931 15.7845 16.7337 16.5433 16.6087C16.9183 16.5244 17.2933 16.4419 17.6683 16.2744C17.912 16.1494 18.212 16.0244 18.5414 15.8138C18.5414 15.8138 18.1664 16.3988 17.1633 16.6912C17.3695 16.9825 17.6601 17.3162 17.6601 17.3162C19.3751 17.2788 20.0414 16.1912 20.0789 16.2375C20.0789 13.8187 18.9445 11.85 18.9445 11.85C17.9226 11.0912 16.9664 11.0625 16.7976 11.0625L16.8326 11.05L16.8333 11.0519ZM16.9383 13.81C17.3776 13.81 17.732 14.185 17.732 14.6444C17.732 15.1069 17.3758 15.4819 16.9383 15.4819C16.5008 15.4819 16.1445 15.1069 16.1445 14.6481C16.1458 14.1856 16.5026 13.8119 16.9383 13.8119V13.81ZM14.0989 13.81C14.5364 13.81 14.8901 14.185 14.8901 14.6444C14.8901 15.1069 14.5339 15.4819 14.0964 15.4819C13.6589 15.4819 13.3026 15.1069 13.3026 14.6481C13.3026 14.1856 13.6589 13.8119 14.0964 13.8119L14.0989 13.81Z" fill="#181C1F"/>
</svg>
