<svg width="30" height="30" viewBox="0 0 31 30" fill="none" xmlns="http://www.w3.org/2000/svg">
<circle cx="15.4998" cy="15" r="15" fill="white"/>
<path fill-rule="evenodd" clip-rule="evenodd" d="M15.2286 6.00224C10.7131 6.00224 6.49976 10.1337 6.49976 15.2293C6.49976 19.3068 9.21369 22.7646 12.7895 23.9845C13.24 24.0701 13.4726 23.784 13.4726 23.5407C13.4726 23.3199 13.4976 22.5934 13.4943 21.823C10.9906 22.3817 10.4802 20.7338 10.4802 20.7338C10.0704 19.6672 9.48889 19.3833 9.48889 19.3833C8.67265 18.8099 9.5558 18.8236 9.5558 18.8236C10.4589 18.8877 10.9367 19.773 10.9367 19.773C11.7397 21.1843 13.0437 20.7754 13.5568 20.54C13.6381 19.9442 13.8715 19.5364 14.1286 19.3067C12.1292 19.0736 10.0289 18.2817 10.0289 14.7461C10.0289 13.7393 10.3806 12.9159 10.9551 12.2693C10.8618 12.0361 10.5542 11.099 11.042 9.82731C11.042 9.82731 11.7979 9.57952 13.5182 10.7736C14.2356 10.5696 15.0057 10.4671 15.7704 10.4638C16.535 10.4671 17.3062 10.5696 18.0247 10.7736C19.743 9.57952 20.4977 9.82731 20.4977 9.82731C20.9866 11.099 20.6802 12.0373 20.5868 12.2693C21.1634 12.9159 21.5128 13.7393 21.5128 14.7461C21.5128 18.2897 19.4068 19.0702 17.403 19.2977C17.726 19.5838 18.0137 20.1458 18.0137 21.0063C18.0137 22.2408 18.0039 23.2343 18.0039 23.5383C18.0039 23.7839 18.1653 24.0713 18.6225 23.981C22.1961 22.759 24.4998 19.3011 24.4998 15.2271C24.4998 10.1314 19.7222 6 15.2286 6V6.00224Z" fill="#181C1F"/>
</svg>
