<svg width="30" height="30" viewBox="0 0 30 30" fill="none" xmlns="http://www.w3.org/2000/svg">
<circle cx="15" cy="15" r="15" fill="white"/>
<path d="M23.7521 14.5668C23.7521 13.3241 22.7758 12.3477 21.5331 12.3477C21.0005 12.3477 20.468 12.5253 20.1129 12.8803C18.7815 12.0815 17.1838 11.5489 15.3199 11.4601L16.2962 7.90972L19.3141 8.79732C19.3141 9.03045 19.36 9.26129 19.4492 9.47667C19.5384 9.69205 19.6692 9.88775 19.834 10.0526C19.9989 10.2174 20.1946 10.3482 20.41 10.4374C20.6253 10.5266 20.8562 10.5725 21.0893 10.5725C21.3224 10.5725 21.5533 10.5266 21.7687 10.4374C21.984 10.3482 22.1797 10.2174 22.3446 10.0526C22.5094 9.88775 22.6402 9.69205 22.7294 9.47667C22.8186 9.26129 22.8645 9.03045 22.8645 8.79732C22.8645 8.32651 22.6775 7.87498 22.3446 7.54206C22.0117 7.20914 21.5601 7.02211 21.0893 7.02211C20.468 7.02211 19.8467 7.37716 19.5804 7.90972L16.03 7.02211C15.7637 6.93335 15.5861 7.11087 15.4974 7.37716L14.4323 11.4601C12.657 11.5489 10.9706 12.0815 9.63919 12.8803C9.28414 12.5253 8.75158 12.3477 8.21902 12.3477C6.97637 12.3477 6 13.3241 6 14.5668C6 15.3656 6.35504 15.9869 6.97637 16.4307L6.88761 17.2296C6.88761 20.425 10.438 22.999 14.8761 22.999C19.3141 22.999 22.8645 20.425 22.8645 17.2296L22.7758 16.4307C23.3971 15.9869 23.7521 15.3656 23.7521 14.5668ZM12.2132 14.833C12.8346 14.833 13.2784 15.3656 13.2784 15.8982C13.2784 16.4307 12.8346 16.9633 12.2132 16.9633C11.5919 16.9633 11.1481 16.5195 11.1481 15.8982C11.1481 15.2769 11.5919 14.833 12.2132 14.833ZM18.249 19.6261C16.6513 20.6025 13.1008 20.6025 11.5032 19.6261C11.3256 19.4486 11.2369 19.1823 11.4144 19.0048C11.5919 18.8273 11.8582 18.7385 12.0357 18.916C13.1008 19.7149 16.6513 19.7149 17.7164 18.916C17.8939 18.7385 18.1602 18.8273 18.3377 19.0048C18.5152 19.1823 18.4265 19.4486 18.249 19.6261ZM17.5389 16.9633C16.9176 16.9633 16.4738 16.4307 16.4738 15.8982C16.4738 15.2769 17.0063 14.833 17.5389 14.833C18.1602 14.833 18.604 15.3656 18.604 15.8982C18.604 16.5195 18.1602 16.9633 17.5389 16.9633Z" fill="#181C1F"/>
</svg>
