<svg width="30" height="30" viewBox="0 0 30 30" fill="none" xmlns="http://www.w3.org/2000/svg">
<circle cx="15.0002" cy="15" r="15" fill="white"/>
<path d="M24.5 9.65823C23.8437 9.94439 23.1487 10.1319 22.4376 10.2147C23.1842 9.77706 23.7455 9.08201 24.0161 8.25999C23.3231 8.66424 22.5549 8.95911 21.7367 9.11748C21.3983 8.76354 20.9916 8.48206 20.5411 8.29013C20.0906 8.0982 19.6058 7.99983 19.1161 8.00099C17.1334 8.00099 15.526 9.58298 15.526 11.536C15.526 11.8125 15.5575 12.082 15.6187 12.341C14.1964 12.2735 12.8038 11.9102 11.5297 11.2745C10.2556 10.6387 9.12804 9.74436 8.21887 8.64849C7.90001 9.18608 7.73195 9.79969 7.73237 10.4247C7.73237 11.6515 8.36675 12.733 9.33012 13.3665C8.76073 13.349 8.20346 13.1977 7.7035 12.9246V12.9684C7.7035 14.6807 8.94075 16.1096 10.5822 16.4342C10.0534 16.5754 9.49971 16.5963 8.96175 16.4955C9.4185 17.899 10.7441 18.921 12.3156 18.9498C11.0381 19.9346 9.46964 20.4671 7.85662 20.4636C7.57034 20.4633 7.28431 20.4464 7 20.4128C8.64702 21.4531 10.5557 22.0038 12.5037 22.001C19.1074 22.001 22.7185 16.6153 22.7185 11.9455C22.7185 11.7924 22.715 11.6392 22.708 11.4879C23.4095 10.9899 24.0164 10.3706 24.5 9.65911V9.65823Z" fill="#181C1F"/>
</svg>
