<svg id="图层_1" data-name="图层 1" xmlns="http://www.w3.org/2000/svg" viewBox="0 0 200 200"><defs><style>.cls-1{fill:#fffdfd;}.cls-2{fill:#fda806;}</style></defs><title>BTC</title><circle class="cls-1" cx="100" cy="100" r="100"/><path class="cls-2" d="M152.12,86.06q-2.69,16.22-17.38,19.35,9.51,5.16,12.8,13t-1.08,19.63a33.73,33.73,0,0,1-5.73,10.1,24.73,24.73,0,0,1-7.67,6.22,29.5,29.5,0,0,1-9.78,2.83,53.07,53.07,0,0,1-11.35.16,106.66,106.66,0,0,1-13-2.08L93,177.43l-13.37-3.58,5.84-21.79q-7-1.87-10.57-2.93L69,171l-13.37-3.58,5.93-22.14L56.93,144q-3.12-.88-4.77-1.33L34.79,138l7-15.17,9.64,2.58c2.9.78,5-.25,6.23-3.08l16-59.91q.45-6.21-6.15-8l-9.63-2.58,3.81-14.24,18.39,5c3.7,1,6.52,1.71,8.44,2.17l5.87-21.88,13.37,3.58L102,48q7.17,1.72,10.64,2.66l5.7-21.27,13.38,3.58-5.87,21.88A80.32,80.32,0,0,1,137.5,60a41.18,41.18,0,0,1,8.76,6.54,20.52,20.52,0,0,1,5.35,8.69A23.1,23.1,0,0,1,152.12,86.06Zm-31.35,42.32a12,12,0,0,0,.18-5.91,13.46,13.46,0,0,0-2.14-4.85,16.8,16.8,0,0,0-4.28-4,44.09,44.09,0,0,0-5.26-3.13,52.43,52.43,0,0,0-6.22-2.5q-3.75-1.29-5.92-1.87t-5.62-1.41l-4.15-1L79.5,133.05c.46.12,1.53.42,3.2.9s3,.87,4.15,1.16,2.65.67,4.64,1.11,3.72.78,5.17,1,3.17.43,5.15.59a33.48,33.48,0,0,0,5.15.07,30.11,30.11,0,0,0,4.61-.71,11.73,11.73,0,0,0,7.18-4.59,12,12,0,0,0,2-4.21Zm4.91-43A11.79,11.79,0,0,0,126,80a12.55,12.55,0,0,0-1.67-4.36,13.52,13.52,0,0,0-3.52-3.54,30,30,0,0,0-4.39-2.72,51.86,51.86,0,0,0-5.15-2.12q-3.1-1.11-5-1.57t-4.71-1.17l-3.44-.87L90.94,90.32l3,.85c1.7.49,3,.85,4,1.08s2.46.57,4.39,1a37.3,37.3,0,0,0,4.91.8c1.33.11,2.91.19,4.72.25a15.39,15.39,0,0,0,4.65-.48,25.24,25.24,0,0,0,3.84-1.48,8.73,8.73,0,0,0,3.24-2.72A12.74,12.74,0,0,0,125.68,85.39Z" transform="translate(0 0)"/></svg>