<?xml version="1.0" encoding="utf-8"?>
<!-- Generator: Adobe Illustrator 23.0.3, SVG Export Plug-In . SVG Version: 6.00 Build 0)  -->
<svg version="1.1" id="图层_1" xmlns="http://www.w3.org/2000/svg" xmlns:xlink="http://www.w3.org/1999/xlink" x="0px" y="0px"
	 viewBox="0 0 200 200" style="enable-background:new 0 0 200 200;" xml:space="preserve">
<style type="text/css">
	.st0{fill:#FFFDFD;}
	.st1{fill:#6B7590;}
	.st2{fill:#FFFFFF;}
</style>
<title>BTC</title>
<circle class="st0" cx="100" cy="100" r="100"/>
<path class="st1" d="M96.8,17l69.3,41.6v83.2l-69.3,41.6l-69.3-41.6V58.6L96.8,17z"/>
<path class="st2" d="M104.6,142.1h-15v-14.9h15V142.1z M118.5,99.4c-1.2,1.5-3.7,3.7-7.5,6.8c-3.2,2.5-5.3,4.6-6.1,6.4
	c-0.9,1.8-1.3,4.3-1.3,7.4H89.9c0-6.7,1.5-12,4.4-15.8c0.4-0.5,3.1-3,8.1-7.5c2.9-2.7,4.3-5.8,4.3-9.3c0-2.8-1-5.2-3-7.1
	c-2-1.9-4.4-2.9-7-2.9c-2.7,0-5,1-6.9,3c-2.2,2.2-3.6,5.4-4.1,9.5H71.4c0-7.5,2.2-13.4,6.7-17.9c4.5-4.5,10.4-6.7,17.7-6.7
	c8.3,0,14.8,2.1,19.4,6.2c4.7,4.1,7,9.9,7,17.4C122.3,92.9,121,96.4,118.5,99.4z"/>
</svg>
