<svg xmlns="http://www.w3.org/2000/svg" viewBox="0 0 200 200"><defs><style>.cls-1{fill:#fffdfd;}.cls-2{fill:#2775ca;}</style></defs><title>usdc</title><g id="图层_2" data-name="图层 2"><g id="图层_1-2" data-name="图层 1"><circle class="cls-1" cx="100" cy="100" r="100"/><path class="cls-2" d="M77.49,38.58a65.39,65.39,0,0,0,0,122.83,1.54,1.54,0,0,0,2-1.47v-8.7a1.48,1.48,0,0,0-.94-1.38,54.27,54.27,0,0,1,0-99.74,1.54,1.54,0,0,0,.94-1.38V40a1.52,1.52,0,0,0-2-1.46Zm41.41-1.22a1.54,1.54,0,0,0-2,1.49v8.52a1.55,1.55,0,0,0,1,1.43,54.28,54.28,0,0,1,0,102.44,1.51,1.51,0,0,0-1,1.43v8.49a1.55,1.55,0,0,0,2,1.48,65.42,65.42,0,0,0,0-125.27Z"/><path class="cls-2" d="M117,82c-4.72-3.89-8.88-6-14.76-6-6.8,0-10.63,2.85-10.63,8.49,0,12.68,35.1,10.72,35.1,33.63,0,11.15-7,19.42-20.31,21.65v11.86H95V140.19c-7.84-.82-16.73-4-22.85-8.88l7.5-10.11c6.34,4.41,12.47,7,19,7,8.09,0,11.76-3.16,11.76-9,0-13.78-35.1-12.56-35.1-33.94,0-11.14,7.51-18.8,19.64-20.85V52.5h11.42V64.14c8.3,1,14.18,4.72,19.17,9.31L117,82Z"/></g></g></svg>