<svg xmlns="http://www.w3.org/2000/svg" viewBox="0 0 200 200"><defs><style>.cls-1{fill:#fffdfd;}.cls-2{fill:#19986f;}.cls-3{fill:#fff;}</style></defs><title>usdt</title><g id="图层_2" data-name="图层 2"><g id="图层_1-2" data-name="图层 1"><circle class="cls-1" cx="100" cy="100" r="100"/><path class="cls-2" d="M145.38,58.05a2.39,2.39,0,0,0-2.2-1.34H58.78a2.39,2.39,0,0,0-2.2,1.34L34.68,98.28a2.5,2.5,0,0,0,.49,3.07l64.06,60.14a2.58,2.58,0,0,0,3.5,0l64.06-60.14a2.55,2.55,0,0,0,.49-3.07Z"/><path class="cls-3" d="M125.43,75.1H76.32V86.94H94.93v17.42h11.89V86.94h18.61Z"/><path class="cls-3" d="M132.31,101.67c0-3.87-14-7-31.3-7s-31.31,3.17-31.31,7,10.76,6.24,25.23,6.89v25h11.89v-25c14.47-.59,25.49-3.44,25.49-6.89ZM101,106.19c-15.38,0-27.86-2.42-27.86-5.38S85.57,95.43,101,95.43s27.92,2.48,27.92,5.38S116.39,106.19,101,106.19Z"/></g></g></svg>